# xmcd
#
# Track frame offsets: 
#        150
#        20215
#        45762
#        66210
#        85385
#        102082
#        122310
#        147977
#        162940
#        183437
#        218492
#        240785
#
# Disc length: 3730 seconds
#
# Revision: 5
# Processed by: cddbd v1.5.2PL0 Copyright (c) Steve Scherf et al.
# Submitted via: ExactAudioCopy v0.95b4
#
DISCID=920e900c
DTITLE=Πορτοκάλογλου Νίκος - Παιχνίδια Με Τον Διάβολο
DYEAR=1999
DGENRE=Greek_Rock
TTITLE0=Τι έχει μείνει απ' τη φωτιά
TTITLE1=Παιχνίδια με τον διάβολο
TTITLE2=Που ήσουνα φως μου
TTITLE3=Δεν είμαι από 'δω
TTITLE4=Ο ταχυδρόμος
TTITLE5=Δεν μας συγχωρώ
TTITLE6=Το τρένο
TTITLE7=Πόσα χρωστάς
TTITLE8=Ο τύραννος μου
TTITLE9=Εδώ στη φυλακή
TTITLE10=Δεν σου 'χω πει ακόμα τίποτα
TTITLE11=Δεν με νοιάζει
EXTD=
EXTT0=
EXTT1=
EXTT2=
EXTT3=
EXTT4=
EXTT5=
EXTT6=
EXTT7=
EXTT8=
EXTT9=
EXTT10=
EXTT11=
PLAYORDER=
